<svg xmlns="http://www.w3.org/2000/svg" viewBox="0 0 128 128"><path d="M128.2 63c-.5-3.5-1.8-6.6-3.9-8.5l-45-47.7-.2-.2-.2-.2s-.1-.1-.1-.2l-.3-.4c-8.4-8-21.9-7.6-30 .8L3.4 54.3c-2 2.3-3.2 5.5-3.2 8.6-.1 3.3 1.1 6.4 3.5 8.8 2.3 2.3 5.5 3.6 8.8 3.6h1.1v36.9c0 4 1.6 7.9 4.4 10.8 2.8 2.8 6.7 4.4 10.6 4.4h23.2c1.6 0 3.2-.7 4.5-1.9 1.2-1.2 1.9-2.8 1.9-4.5V84.9h9.9v36.7c0 1.6.6 3.2 1.9 4.5 1.1 1.1 2.9 1.9 4.5 1.9h24c4 0 7.9-1.6 10.9-4.5 2.8-3 4.4-7 4.3-11.2v-37h1.9c3.3.1 6.4-1.1 8.7-3.4 2.3-2.3 3.6-5.4 3.6-8.7l.3-.2zm-25.4 1.4c-1.2 1.2-1.9 2.8-1.9 4.5v43.2c-.1 1.6-1.3 2.8-2.8 2.9H80.8l.5-31.9c0-3-1.1-5.7-3.2-7.8-2-2-4.7-3-7.8-3H56.6c-2.9 0-5.6 1.1-7.7 3.2-2.1 2.1-3.2 4.8-3.2 7.7v31.6h-17c-1.6 0-2.8-1.2-2.9-2.9V68.2c0-1.7-.6-3.2-1.9-4.5-1.2-1.2-2.8-1.9-4.5-1.9h-5.8L58 15.6l.5-.5v-.2c1.6-1.2 3.5-1.9 5.6-1.9 2.4.1 4.5 1 6 2.7l44.9 47h-7.9c-1.4-.2-3.1.5-4.3 1.7z"/></svg>