<?xml version="1.0" standalone="no"?><!DOCTYPE svg PUBLIC "-//W3C//DTD SVG 1.1//EN" "http://www.w3.org/Graphics/SVG/1.1/DTD/svg11.dtd"><svg t="1661738379185" class="icon" viewBox="0 0 1024 1024" version="1.1" xmlns="http://www.w3.org/2000/svg" p-id="6810" xmlns:xlink="http://www.w3.org/1999/xlink" width="128" height="128"><path d="M897.8 404.8H566.9c-9.1 0-17.4-5.2-21.4-13.3L440 175.7H176.2c-30.9 0-56 25.1-56 56v560.1c0 30.9 25.1 56 56 56h672.1c30.9 0 56-25.1 56-56V411.4c0-3.6-2.9-6.6-6.5-6.6zM176.2 119.7h288.7c6.1 0 11.8 3.5 14.5 9l102.4 209.4c3.2 6.6 9.9 10.7 17.2 10.7h354.8c3.7 0 6.6 3 6.6 6.6v436.4c0 61.9-50.2 112-112 112H176.2c-61.9 0-112-50.2-112-112V231.7c0-61.9 50.2-112 112-112z m343.5 0h140.1c1.1 0 2.2 0.6 2.8 1.6l109.8 184.6c0.6 1-0.1 2.2-1.3 2.2H635.2c-6.8 0-13.1-3.6-16.5-9.4L513.3 122.9c-0.7-1.2 0.1-2.8 1.5-2.9l4.9-0.3z m184.4 0h144.3c61.9 0 112 50.2 112 112v72.1c0 2.4-1.9 4.3-4.3 4.3H818.9c-4.9 0-9.4-2.6-11.9-6.8L701.6 124c-0.4-0.7-0.5-1.6-0.2-2.4 0.3-1.2 1.4-1.9 2.7-1.9z" p-id="6811"/></svg>